<?xml version="1.0" encoding="utf-8"?>
<!-- Generator: Adobe Illustrator 16.0.4, SVG Export Plug-In . SVG Version: 6.00 Build 0)  -->
<!DOCTYPE svg PUBLIC "-//W3C//DTD SVG 1.1//EN" "http://www.w3.org/Graphics/SVG/1.1/DTD/svg11.dtd">
<svg version="1.1" id="Layer_1" xmlns="http://www.w3.org/2000/svg" xmlns:xlink="http://www.w3.org/1999/xlink" x="0px" y="0px"
	 width="70px" height="70px" viewBox="0 0 70 70" style="enable-background:new 0 0 70 70;" xml:space="preserve">
<path d="M39,27.49c0-1.662-1.023-2.448-2.409-2.448c-1.522,0-2.591,0.786-2.591,2.448V33h5V27.49z"/>
<path d="M35,0.5C15.946,0.5,0.5,15.946,0.5,35S15.946,69.5,35,69.5S69.5,54.054,69.5,35S54.054,0.5,35,0.5z M34.949,41.48
	c0.509,0.599,1.215,0.874,2.092,0.874c2.586,0,6.194-2.215,8.224-5.03l0.766,0.785c-1.015,1.384-2.479,2.815-3.912,3.786
	c-1.938,1.29-4.055,1.938-6.594,1.938c-6.833,0-11.955-4.062-11.955-9.511c0-5.815,5.22-10.04,12.191-10.04
	c5.584,0,9.88,3.718,10.666,9.718H34v3.786C34,39.955,34.35,40.742,34.949,41.48z"/>
</svg>
