<?xml version="1.0" encoding="utf-8"?>
<!-- Generator: Adobe Illustrator 16.0.4, SVG Export Plug-In . SVG Version: 6.00 Build 0)  -->
<!DOCTYPE svg PUBLIC "-//W3C//DTD SVG 1.1//EN" "http://www.w3.org/Graphics/SVG/1.1/DTD/svg11.dtd">
<svg version="1.1" id="Layer_1" xmlns="http://www.w3.org/2000/svg" xmlns:xlink="http://www.w3.org/1999/xlink" x="0px" y="0px"
	 width="70px" height="70px" viewBox="0 0 70 70" style="enable-background:new 0 0 70 70;" xml:space="preserve">
<path d="M35,0.5C15.946,0.5,0.5,15.946,0.5,35c0,19.055,15.446,34.5,34.5,34.5c19.055,0,34.5-15.445,34.5-34.5
	C69.5,15.946,54.055,0.5,35,0.5z M49.697,48.831H35.423v-0.89h1.378V35.088c0-1.6-0.443-2.311-1.423-2.311
	c-0.667,0-1.424,0.354-2.268,1.023v14.142h1.423v0.89h-14.23v-0.89h2.89v-27.35h-2.89v-0.889h7.516c2.044,0,3.201-0.091,4.891-0.445
	l0.401-0.089v13.562c2.536-1.512,5.071-2.267,7.872-2.267c2.271,0,4.226,0.888,5.024,2.267c0.446,0.845,0.666,2.134,0.666,4.048
	v11.162h3.024V48.831z"/>
</svg>
