<?xml version="1.0" encoding="utf-8"?>
<!-- Generator: Adobe Illustrator 16.0.4, SVG Export Plug-In . SVG Version: 6.00 Build 0)  -->
<!DOCTYPE svg PUBLIC "-//W3C//DTD SVG 1.1//EN" "http://www.w3.org/Graphics/SVG/1.1/DTD/svg11.dtd">
<svg version="1.1" id="Layer_1" xmlns="http://www.w3.org/2000/svg" xmlns:xlink="http://www.w3.org/1999/xlink" x="0px" y="0px"
	 width="40px" height="40px" viewBox="0 0 40 40" style="enable-background:new 0 0 40 40;" xml:space="preserve">
<path d="M19.982,0.5c-10.769,0-19.5,8.73-19.5,19.499c0,10.771,8.73,19.501,19.5,19.501s19.5-8.73,19.5-19.501
	C39.482,9.23,30.751,0.5,19.982,0.5z M16,28h-4V16h4V28z M14.193,14.433c-1.127,0-2.038-0.912-2.038-2.035s0.91-2.035,2.038-2.035
	c1.123,0,2.034,0.912,2.034,2.035S15.315,14.433,14.193,14.433z M29,28h-4v-6.223c0-1.31-0.059-2.994-1.86-2.994
	c-1.826,0-2.14,1.428-2.14,2.9V28h-4V16h4v1.758c0.707-0.537,1.982-1.822,3.336-1.822c3.555,0,4.664,2.098,4.664,5.14V28z"/>
</svg>
