<?xml version="1.0" encoding="utf-8"?>
<!-- Generator: Adobe Illustrator 16.0.4, SVG Export Plug-In . SVG Version: 6.00 Build 0)  -->
<!DOCTYPE svg PUBLIC "-//W3C//DTD SVG 1.1//EN" "http://www.w3.org/Graphics/SVG/1.1/DTD/svg11.dtd" [
	<!ENTITY st0 "fill:none;stroke:#FFFFFF;stroke-miterlimit:10;">
]>
<svg version="1.1" id="Layer_1" xmlns="http://www.w3.org/2000/svg" xmlns:xlink="http://www.w3.org/1999/xlink" x="0px" y="0px"
	 width="2958.529px" height="1857.125px" viewBox="-837.883 -1080.062 2958.529 1857.125"
	 style="enable-background:new -837.883 -1080.062 2958.529 1857.125;" xml:space="preserve">
<g id="Layer_2">
	<line style="&st0;" x1="-837.5" y1="-1073.959" x2="2120.403" y2="569.984"/>
	<line style="&st0;" x1="-837.5" y1="-1073.959" x2="2120.403" y2="3.208"/>
	<line style="&st0;" x1="-837.5" y1="-1079.741" x2="720.846" y2="776.741"/>
</g>
<g id="Layer_3">
	<line style="&st0;" x1="-837.5" y1="761.744" x2="2115.785" y2="-876.063"/>
	<line style="&st0;" x1="-837.5" y1="761.744" x2="2115.785" y2="-311.402"/>
	<line style="&st0;" x1="-837.5" y1="767.506" x2="718.412" y2="-1082.05"/>
	<line style="&st0;" x1="-837.5" y1="761.744" x2="2115.785" y2="-876.063"/>
	<line style="&st0;" x1="-837.5" y1="761.744" x2="2115.785" y2="-311.402"/>
	<line style="&st0;" x1="-837.5" y1="767.506" x2="718.412" y2="-1082.05"/>
</g>
<g id="Layer_4">
	<line style="&st0;" x1="-58.193" y1="-1082.05" x2="-58.193" y2="767.506"/>
	<line style="&st0;" x1="218.894" y1="-1082.05" x2="218.894" y2="762.887"/>
	<line style="&st0;" x1="343.583" y1="-1079.741" x2="343.583" y2="767.506"/>
	<line style="&st0;" x1="814.631" y1="-1082.05" x2="814.631" y2="767.506"/>
	<line style="&st0;" x1="1160.99" y1="-1082.05" x2="1160.99" y2="776.741"/>
	<line style="&st0;" x1="1675.909" y1="-1079.741" x2="1675.909" y2="779.051"/>
</g>
<g id="Layer_5">
	<circle style="&st0;" cx="-58.771" cy="-150.923" r="744.094"/>
	<path style="&st0;" d="M941.949-1079.741c91.227,123.521,145.151,276.268,145.151,441.607
		c0,410.951-333.143,744.094-744.095,744.094s-744.094-333.143-744.094-744.094c0-165.34,53.928-318.086,145.151-441.607"/>
	<path style="&st0;" d="M2120.4,436.205c-124.122,92.786-278.18,147.729-445.068,147.729
		c-410.951,0-744.094-333.142-744.094-744.094c0-410.952,333.143-744.094,744.094-744.094c166.887,0,320.941,54.939,445.064,147.72"
		/>
	<path style="&st0;" d="M-263.472,767.506c-86.653-121.649-137.616-270.483-137.616-431.217
		c0-410.952,333.142-744.094,744.094-744.094s744.095,333.143,744.095,744.094c0,160.733-50.965,309.567-137.618,431.217"/>
	<circle style="&st0;" cx="814.054" cy="-160.159" r="186.023"/>
	<circle style="&st0;" cx="1160.412" cy="-344.884" r="372.047"/>
	<circle style="&st0;" cx="1160.412" cy="26.875" r="372.047"/>
	<circle style="&st0;" cx="218.317" cy="172.345" r="372.047"/>
	<circle style="&st0;" cx="218.317" cy="-490.354" r="372.047"/>
</g>
</svg>
